<?xml version="1.0" encoding="utf-8"?>
<!-- Generator: Adobe Illustrator 16.0.0, SVG Export Plug-In . SVG Version: 6.00 Build 0)  -->
<!DOCTYPE svg PUBLIC "-//W3C//DTD SVG 1.1//EN" "http://www.w3.org/Graphics/SVG/1.1/DTD/svg11.dtd">
<svg version="1.1" id="Layer_1" xmlns="http://www.w3.org/2000/svg" xmlns:xlink="http://www.w3.org/1999/xlink" x="0px" y="0px"
	 width="144px" height="45.323px" viewBox="0 0 144 45.323" enable-background="new 0 0 144 45.323" xml:space="preserve">
<g>
	<path d="M0.18-0.012h9.865c2.449,0,4.3,0.629,5.555,1.885c0.971,0.973,1.457,2.18,1.457,3.619v0.061
		c0,0.608-0.076,1.146-0.227,1.612c-0.151,0.467-0.353,0.887-0.604,1.262c-0.252,0.375-0.543,0.705-0.876,0.988
		c-0.333,0.284-0.69,0.527-1.072,0.73c1.23,0.466,2.2,1.1,2.906,1.9c0.706,0.801,1.06,1.911,1.06,3.33v0.061
		c0,0.973-0.188,1.825-0.562,2.555c-0.375,0.729-0.911,1.338-1.609,1.825c-0.699,0.486-1.538,0.851-2.52,1.095
		c-0.981,0.243-2.069,0.365-3.263,0.365H0.18V-0.012z M9.059,8.594c1.034,0,1.855-0.177,2.463-0.532
		c0.608-0.354,0.912-0.927,0.912-1.718V6.283c0-0.709-0.264-1.251-0.791-1.627c-0.527-0.375-1.288-0.562-2.281-0.562H4.741v4.5
		H9.059z M10.306,17.169c1.034,0,1.844-0.187,2.433-0.562c0.588-0.375,0.882-0.958,0.882-1.749v-0.061
		c0-0.709-0.273-1.272-0.821-1.688s-1.429-0.624-2.646-0.624H4.741v4.683H10.306z"/>
	<path d="M31.015,21.609c-2.858,0-5.109-0.791-6.751-2.372c-1.642-1.581-2.463-3.943-2.463-7.085V-0.012h4.684V12.03
		c0,1.744,0.405,3.056,1.216,3.938c0.811,0.882,1.936,1.323,3.375,1.323c1.439,0,2.564-0.426,3.375-1.277
		c0.811-0.852,1.216-2.129,1.216-3.832V-0.012h4.683V12c0,1.622-0.218,3.031-0.654,4.227s-1.06,2.194-1.87,2.995
		c-0.811,0.801-1.794,1.399-2.95,1.794C33.721,21.412,32.434,21.609,31.015,21.609z"/>
	<path d="M45.337-0.012h4.684v21.287h-4.684V-0.012z"/>
	<path d="M55.343-0.012h4.683v17.06h10.613v4.227H55.343V-0.012z"/>
	<path d="M79.123,4.306h-6.477v-4.318h17.637v4.318h-6.477v16.969h-4.684V4.306z"/>
	<path d="M102.995-0.012h9.865c2.448,0,4.301,0.629,5.556,1.885c0.971,0.973,1.456,2.18,1.456,3.619v0.061
		c0,0.608-0.075,1.146-0.227,1.612c-0.15,0.467-0.353,0.887-0.604,1.262c-0.251,0.375-0.543,0.705-0.876,0.988
		c-0.332,0.284-0.689,0.527-1.072,0.73c1.23,0.466,2.199,1.1,2.906,1.9c0.706,0.801,1.06,1.911,1.06,3.33v0.061
		c0,0.973-0.188,1.825-0.562,2.555c-0.375,0.729-0.911,1.338-1.609,1.825c-0.698,0.486-1.538,0.851-2.52,1.095
		c-0.982,0.243-2.069,0.365-3.264,0.365h-10.109V-0.012z M111.875,8.594c1.033,0,1.854-0.177,2.463-0.532
		c0.608-0.354,0.912-0.927,0.912-1.718V6.283c0-0.709-0.264-1.251-0.79-1.627c-0.528-0.375-1.288-0.562-2.281-0.562h-4.622v4.5
		H111.875z M113.121,17.169c1.034,0,1.845-0.187,2.434-0.562c0.587-0.375,0.882-0.958,0.882-1.749v-0.061
		c0-0.709-0.274-1.272-0.821-1.688c-0.548-0.416-1.43-0.624-2.646-0.624h-5.413v4.683H113.121z"/>
	<path d="M130.94,12.882l-8.18-12.894h5.474l5.078,8.545l5.17-8.545h5.322l-8.181,12.803v8.484h-4.684V12.882z"/>
</g>
<g>
	<path d="M73.806,24.036h5.048l5.596,9.002l5.596-9.002h5.048v21.287h-4.622V31.426l-5.991,9.093h-0.121l-5.931-9.001v13.806h-4.622
		V24.036z"/>
	<path d="M107.5,23.884h4.318l9.123,21.439h-4.896l-1.946-4.774h-9.001l-1.946,4.774h-4.774L107.5,23.884z M112.427,36.413
		l-2.828-6.903l-2.828,6.903H112.427z"/>
	<path d="M124.225,24.036h8.303c1.662,0,3.188,0.269,4.576,0.806s2.585,1.282,3.589,2.235c1.003,0.953,1.778,2.073,2.326,3.36
		c0.547,1.288,0.821,2.682,0.821,4.182v0.061c0,1.501-0.274,2.899-0.821,4.196c-0.548,1.298-1.323,2.423-2.326,3.376
		c-1.004,0.953-2.2,1.703-3.589,2.25c-1.389,0.548-2.914,0.821-4.576,0.821h-8.303V24.036z M132.527,41.097
		c0.952,0,1.824-0.152,2.615-0.457c0.79-0.304,1.464-0.739,2.021-1.308c0.558-0.567,0.993-1.236,1.309-2.007
		c0.313-0.77,0.471-1.632,0.471-2.585V34.68c0-0.933-0.157-1.794-0.471-2.585c-0.315-0.79-0.751-1.47-1.309-2.037
		s-1.231-1.009-2.021-1.323c-0.791-0.313-1.663-0.471-2.615-0.471h-3.619v12.833H132.527z"/>
</g>
</svg>
