<?xml version="1.0" encoding="utf-8"?>
<!-- Generator: Adobe Illustrator 16.0.4, SVG Export Plug-In . SVG Version: 6.00 Build 0)  -->
<!DOCTYPE svg PUBLIC "-//W3C//DTD SVG 1.1//EN" "http://www.w3.org/Graphics/SVG/1.1/DTD/svg11.dtd">
<svg version="1.1" id="Layer_1" xmlns="http://www.w3.org/2000/svg" xmlns:xlink="http://www.w3.org/1999/xlink" x="0px" y="0px"
	 width="737.599px" height="87px" viewBox="0 0 737.599 87" enable-background="new 0 0 737.599 87" xml:space="preserve">
<g>
	<g>
		<path fill="#FFFFFF" d="M29.469,46.193v-0.125c0-12.044,8.845-22.708,22.018-22.708c7.402,0,11.981,2.133,16.373,5.834
			l-3.199,3.764c-3.387-2.948-7.151-5.019-13.361-5.019c-9.723,0-16.686,8.218-16.686,18.004v0.125
			c0,10.476,6.712,18.254,17.376,18.254c5.019,0,9.66-1.944,12.671-4.391V49.017H51.298v-4.454h18.128v17.501
			c-4.077,3.639-10.225,6.712-17.626,6.712C38,68.776,29.469,58.74,29.469,46.193z"/>
		<path fill="#FFFFFF" d="M77.771,51.965V51.84c0-9.159,7.151-16.938,16.937-16.938c9.723,0,16.874,7.653,16.874,16.812v0.126
			c0,9.158-7.214,16.937-17,16.937C84.86,68.776,77.771,61.123,77.771,51.965z M106.627,51.965V51.84
			c0-6.963-5.207-12.672-12.044-12.672c-7.026,0-11.856,5.708-11.856,12.546v0.126c0,6.963,5.144,12.607,11.981,12.607
			C101.734,64.447,106.627,58.803,106.627,51.965z"/>
		<path fill="#FFFFFF" d="M118.296,51.965V51.84c0-9.159,7.151-16.938,16.937-16.938c9.723,0,16.874,7.653,16.874,16.812v0.126
			c0,9.158-7.214,16.937-17,16.937C125.384,68.776,118.296,61.123,118.296,51.965z M147.151,51.965V51.84
			c0-6.963-5.207-12.672-12.044-12.672c-7.026,0-11.856,5.708-11.856,12.546v0.126c0,6.963,5.144,12.607,11.981,12.607
			C142.258,64.447,147.151,58.803,147.151,51.965z"/>
		<path fill="#FFFFFF" d="M158.13,63.883l2.446-3.449c3.513,2.635,7.402,4.14,11.229,4.14c3.889,0,6.712-2.007,6.712-5.144v-0.125
			c0-3.263-3.827-4.518-8.092-5.709c-5.081-1.443-10.727-3.199-10.727-9.158v-0.125c0-5.583,4.642-9.284,11.04-9.284
			c3.952,0,8.343,1.38,11.668,3.576l-2.196,3.638c-3.011-1.944-6.461-3.136-9.598-3.136c-3.826,0-6.272,2.007-6.272,4.705v0.125
			c0,3.074,4.015,4.266,8.343,5.583c5.018,1.505,10.413,3.45,10.413,9.284v0.125c0,6.147-5.081,9.723-11.542,9.723
			C166.913,68.65,161.769,66.832,158.13,63.883z"/>
		<path fill="#FFFFFF" d="M190.06,51.902v-0.125c0-9.347,6.587-16.875,15.557-16.875c9.597,0,15.118,7.653,15.118,17.125
			c0,0.627,0,1.004-0.063,1.568h-25.719c0.69,7.025,5.646,10.978,11.417,10.978c4.454,0,7.59-1.819,10.225-4.579l3.011,2.697
			c-3.262,3.639-7.214,6.085-13.361,6.085C197.336,68.776,190.06,61.939,190.06,51.902z M215.841,50.02
			c-0.502-5.896-3.889-11.04-10.35-11.04c-5.646,0-9.911,4.705-10.539,11.04H215.841z"/>
		<path fill="#FFFFFF" d="M244.51,24.113h10.35l9.096,29.733l9.849-29.859h8.28l9.848,29.859l9.096-29.733h10.1l-14.992,44.224
			h-8.406l-9.911-28.729l-9.911,28.729h-8.406L244.51,24.113z"/>
		<path fill="#FFFFFF" d="M310.88,58.363v-0.125c0-7.34,5.583-10.727,13.549-10.727c3.387,0,5.834,0.564,8.218,1.379v-0.564
			c0-3.952-2.447-6.147-7.214-6.147c-3.639,0-6.21,0.69-9.284,1.819l-2.384-7.276c3.701-1.631,7.339-2.697,13.048-2.697
			c5.207,0,8.97,1.38,11.354,3.764c2.509,2.509,3.638,6.21,3.638,10.727v19.509h-9.221v-3.639c-2.321,2.572-5.52,4.266-10.162,4.266
			C316.086,68.65,310.88,65.013,310.88,58.363z M332.772,56.168v-1.693c-1.631-0.754-3.764-1.256-6.084-1.256
			c-4.077,0-6.586,1.632-6.586,4.643v0.125c0,2.572,2.133,4.078,5.207,4.078C329.761,62.064,332.772,59.617,332.772,56.168z"/>
		<path fill="#FFFFFF" d="M351.279,58.488V42.556h-4.015v-8.155h4.015v-8.594h9.535v8.594h7.904v8.155h-7.904V56.92
			c0,2.195,0.941,3.262,3.074,3.262c1.756,0,3.325-0.438,4.705-1.191v7.653c-2.007,1.192-4.328,1.944-7.527,1.944
			C355.231,68.588,351.279,66.268,351.279,58.488z"/>
		<path fill="#FFFFFF" d="M373.172,51.4v-0.125c0-9.598,7.339-17.502,17.626-17.502c6.336,0,10.287,2.133,13.424,5.646l-5.834,6.272
			c-2.133-2.258-4.266-3.701-7.652-3.701c-4.768,0-8.154,4.203-8.154,9.159v0.126c0,5.143,3.324,9.283,8.531,9.283
			c3.199,0,5.395-1.38,7.715-3.575l5.583,5.646c-3.262,3.575-7.025,6.147-13.737,6.147C380.574,68.776,373.172,60.998,373.172,51.4z
			"/>
		<path fill="#FFFFFF" d="M410.623,22.231h9.535v16.937c2.195-2.823,5.018-5.395,9.848-5.395c7.215,0,11.417,4.768,11.417,12.482
			v21.768h-9.534V49.268c0-4.517-2.133-6.837-5.771-6.837s-5.959,2.321-5.959,6.837v18.756h-9.535V22.231z"/>
		<path fill="#FFFFFF" d="M466.201,40.36c4.328-0.439,6.461-2.634,6.147-6.21h-3.89V24.113h10.162v8.468
			c0,8.28-4.14,11.605-11.604,11.73L466.201,40.36z"/>
		<path fill="#FFFFFF" d="M493.363,33.585l-7.652,1.882l-2.008-7.904l12.608-3.764h6.587v44.224h-9.535V33.585z"/>
		<path fill="#FFFFFF" d="M533.637,58.551h-21.453l-1.568-6.837L534.703,23.8h8.154v26.911h5.896v7.84h-5.896v9.473h-9.221V58.551z
			 M533.637,50.711V37.035l-11.668,13.676H533.637z"/>
	</g>
</g>
<line fill="none" stroke="#FFFFFF" stroke-width="3" x1="1.5" y1="0" x2="1.5" y2="87"/>
<g>
	<path fill="#FFFFFF" d="M576.63,46.736h5.048l5.596,9.001l5.596-9.001h5.048v21.287h-4.653V54.125l-5.99,9.094h-0.121l-5.931-9.002
		v13.807h-4.592V46.736z"/>
	<path fill="#FFFFFF" d="M610.326,46.584h4.318l9.123,21.439h-4.896l-1.946-4.774h-9.001l-1.947,4.774h-4.773L610.326,46.584z
		 M615.252,59.113l-2.828-6.903l-2.828,6.903H615.252z"/>
	<path fill="#FFFFFF" d="M627.053,46.736h8.302c6.69,0,11.313,4.592,11.313,10.582v0.062c0,5.991-4.623,10.644-11.313,10.644h-8.302
		V46.736z M631.736,50.963v12.834h3.618c3.832,0,6.417-2.586,6.417-6.356V57.38c0-3.771-2.585-6.417-6.417-6.417H631.736z"/>
	<path fill="#FFFFFF" d="M659.957,46.736h5.049l5.596,9.001l5.596-9.001h5.048v21.287h-4.653V54.125l-5.99,9.094h-0.122
		l-5.931-9.002v13.807h-4.592V46.736z"/>
	<path fill="#FFFFFF" d="M684.895,63.34v-0.061c0-3.559,2.707-5.2,6.569-5.2c1.642,0,2.828,0.274,3.983,0.669v-0.273
		c0-1.916-1.186-2.98-3.497-2.98c-1.764,0-3.011,0.334-4.501,0.882l-1.155-3.527c1.794-0.791,3.558-1.308,6.325-1.308
		c2.524,0,4.35,0.669,5.504,1.824c1.217,1.217,1.765,3.011,1.765,5.201v9.457h-4.471V66.26c-1.125,1.246-2.676,2.068-4.927,2.068
		C687.419,68.328,684.895,66.563,684.895,63.34z M695.508,62.275v-0.82c-0.79-0.365-1.824-0.608-2.949-0.608
		c-1.977,0-3.193,0.79-3.193,2.25v0.062c0,1.246,1.034,1.977,2.524,1.977C694.049,65.135,695.508,63.948,695.508,62.275z"/>
	<path fill="#FFFFFF" d="M703.872,51.723h4.622v2.342c1.125-1.52,2.677-2.646,5.079-2.646c3.802,0,7.42,2.98,7.42,8.424v0.062
		c0,5.443-3.558,8.424-7.42,8.424c-2.464,0-3.983-1.126-5.079-2.434v6.994h-4.622V51.723z M716.371,59.904v-0.062
		c0-2.706-1.824-4.501-3.984-4.501c-2.158,0-3.953,1.795-3.953,4.501v0.062c0,2.706,1.795,4.5,3.953,4.5
		C714.547,64.404,716.371,62.641,716.371,59.904z"/>
	<path fill="#FFFFFF" d="M723.123,65.864l1.977-3.041c1.764,1.277,3.619,1.946,5.139,1.946c1.339,0,1.947-0.486,1.947-1.217v-0.061
		c0-1.004-1.582-1.338-3.376-1.885c-2.28-0.67-4.866-1.734-4.866-4.896V56.65c0-3.315,2.677-5.17,5.961-5.17
		c2.068,0,4.318,0.699,6.082,1.885l-1.764,3.193c-1.611-0.943-3.224-1.521-4.41-1.521c-1.125,0-1.703,0.486-1.703,1.125v0.062
		c0,0.912,1.552,1.338,3.315,1.945c2.28,0.761,4.927,1.855,4.927,4.836v0.061c0,3.619-2.707,5.262-6.234,5.262
		C727.836,68.328,725.281,67.567,723.123,65.864z"/>
</g>
<g>
	<path fill="#FFFFFF" d="M575.857,25.771h4.718c2.845,0,4.718,1.512,4.718,3.997v0.036c0,2.719-2.27,4.123-4.952,4.123h-3.061v4.447
		h-1.423V25.771z M580.395,32.63c2.09,0,3.457-1.116,3.457-2.773v-0.036c0-1.8-1.35-2.737-3.385-2.737h-3.187v5.546H580.395z"/>
	<path fill="#FFFFFF" d="M586.981,33.765v-0.036c0-2.629,2.053-4.861,4.861-4.861c2.791,0,4.844,2.197,4.844,4.825v0.036
		c0,2.629-2.071,4.861-4.88,4.861C589.016,38.59,586.981,36.394,586.981,33.765z M595.264,33.765v-0.036
		c0-1.999-1.494-3.637-3.457-3.637c-2.016,0-3.402,1.638-3.402,3.601v0.036c0,1.999,1.477,3.619,3.438,3.619
		C593.859,37.348,595.264,35.727,595.264,33.765z"/>
	<path fill="#FFFFFF" d="M597.943,29.065h1.477l2.449,7.472l2.502-7.508h1.152l2.521,7.508l2.449-7.472h1.439l-3.277,9.381h-1.205
		l-2.504-7.347l-2.52,7.347h-1.225L597.943,29.065z"/>
	<path fill="#FFFFFF" d="M613.207,33.747V33.71c0-2.683,1.891-4.843,4.466-4.843c2.755,0,4.339,2.197,4.339,4.916
		c0,0.18,0,0.288-0.018,0.45h-7.382c0.198,2.017,1.62,3.151,3.276,3.151c1.279,0,2.18-0.522,2.936-1.314l0.863,0.774
		c-0.936,1.044-2.07,1.746-3.834,1.746C615.297,38.59,613.207,36.627,613.207,33.747z M620.607,33.207
		c-0.144-1.692-1.115-3.169-2.971-3.169c-1.62,0-2.845,1.35-3.024,3.169H620.607z"/>
	<path fill="#FFFFFF" d="M624.439,29.065h1.387v2.431c0.684-1.549,2.034-2.665,3.799-2.593v1.494h-0.107
		c-2.035,0-3.691,1.458-3.691,4.268v3.709h-1.387V29.065z"/>
	<path fill="#FFFFFF" d="M630.758,33.747V33.71c0-2.683,1.891-4.843,4.465-4.843c2.756,0,4.34,2.197,4.34,4.916
		c0,0.18,0,0.288-0.018,0.45h-7.383c0.198,2.017,1.621,3.151,3.277,3.151c1.278,0,2.179-0.522,2.935-1.314l0.864,0.774
		c-0.936,1.044-2.07,1.746-3.835,1.746C632.847,38.59,630.758,36.627,630.758,33.747z M638.158,33.207
		c-0.145-1.692-1.116-3.169-2.971-3.169c-1.621,0-2.846,1.35-3.025,3.169H638.158z"/>
	<path fill="#FFFFFF" d="M641.449,33.747V33.71c0-3.042,2.215-4.843,4.447-4.843c1.729,0,2.846,0.937,3.565,1.98V25.23h1.387v13.144
		h-1.387v-1.873c-0.756,1.116-1.854,2.071-3.565,2.071C643.664,38.572,641.449,36.808,641.449,33.747z M649.516,33.729v-0.036
		c0-2.143-1.639-3.583-3.367-3.583c-1.8,0-3.276,1.333-3.276,3.583v0.036c0,2.197,1.53,3.601,3.276,3.601
		C647.877,37.33,649.516,35.871,649.516,33.729z"/>
	<path fill="#FFFFFF" d="M660.729,36.591v1.783h-1.387V25.23h1.387v5.708c0.756-1.117,1.854-2.071,3.564-2.071
		c2.232,0,4.447,1.765,4.447,4.825v0.036c0,3.043-2.197,4.844-4.447,4.844C662.564,38.572,661.448,37.636,660.729,36.591z
		 M667.318,33.747V33.71c0-2.196-1.514-3.601-3.277-3.601c-1.729,0-3.367,1.458-3.367,3.583v0.036c0,2.161,1.639,3.601,3.367,3.601
		C665.842,37.33,667.318,35.997,667.318,33.747z"/>
	<path fill="#FFFFFF" d="M677.812,29.065h1.477l-3.907,9.615c-0.793,1.926-1.692,2.629-3.098,2.629c-0.773,0-1.35-0.162-1.98-0.468
		l0.469-1.099c0.45,0.234,0.864,0.342,1.459,0.342c0.828,0,1.35-0.432,1.908-1.747l-4.231-9.272h1.53l3.385,7.76L677.812,29.065z"/>
	<path fill="#FFFFFF" d="M681.409,29.065h1.656v1.891h-1.656V29.065z M681.409,36.483h1.656v1.891h-1.656V36.483z"/>
</g>
</svg>
