<?xml version="1.0" encoding="utf-8"?>
<!-- Generator: Adobe Illustrator 16.0.4, SVG Export Plug-In . SVG Version: 6.00 Build 0)  -->
<!DOCTYPE svg PUBLIC "-//W3C//DTD SVG 1.1//EN" "http://www.w3.org/Graphics/SVG/1.1/DTD/svg11.dtd">
<svg version="1.1" id="Layer_1" xmlns="http://www.w3.org/2000/svg" xmlns:xlink="http://www.w3.org/1999/xlink" x="0px" y="0px"
	 width="238.555px" height="83.147px" viewBox="0 0 238.555 83.147" enable-background="new 0 0 238.555 83.147"
	 xml:space="preserve">
<g>
	<path fill="#FFFFFF" d="M72.935,25.548c0.127-0.098,0.277-0.174,0.42-0.256c0.692-0.394,1.447-0.729,2.108-1.17
		c0.43-0.289,0.731-0.663,1.044-1.062c0.116-0.147,0.4-0.451,0.315-0.668c-0.097-0.253-0.56-0.192-0.763-0.163
		c-0.772,0.106-1.535,0.24-2.304,0.368c-0.319,0.053-0.629,0.147-0.948,0.21c-0.95,0.188-1.72,0.23-2.648-0.121
		c-0.811-0.306-1.608-0.726-2.503-0.667c-1.56,0.099-3.636,1.09-5.04,1.986c-1.412,0.901-2.184,2.629-3.229,3.894
		c-1.115,1.353-1.946,2.753-3.118,4.059c-1.105,1.23-2.269,2.321-3.298,3.579c-0.438,0.537-0.743,1.283-1.266,1.784
		c-0.559,0.537-1.335,1.027-2.008,1.475c-0.882,0.583-1.852,1.078-2.795,1.583c-0.826,0.444-1.414,1.049-2.301,1.431
		c-2.884,1.246-6.019,1.789-7.884-1.229c-0.613-0.989-1.187-1.85-1.749-2.888c-0.597-1.103-0.646-1.967-0.798-3.197
		c-0.278-2.265,0.494-4.353,0.247-6.58c-0.113-1.017-0.485-1.896-0.683-2.872c-0.227-1.117-0.133-2.251-0.483-3.35
		c-0.696-2.179-1.338-4.332-2.308-6.342c-1.296-2.686-2.658-5.385-4.083-8.017c-1.237-2.284-2.37-4.963-4.17-6.846
		c-0.589-0.617-1.451-0.535-2.305-0.375c-1.116,0.21-0.951,0.644-0.65,1.577c0.627,1.952,2.087,3.66,2.964,5.506
		c-0.636,0.304-2.47-3.111-2.799-3.658c-0.357-0.598-0.606-0.947-1.212-1.138c-0.577-0.184-1.513-0.354-2.027,0.118
		c-1.017,0.927,0.732,2.638,1.239,3.477c0.756,1.254,1.522,2.519,2.154,3.837c-0.667,0.701-1.095-0.474-1.406-0.915
		c-0.425-0.605-1.047-1.138-1.622-1.667c-0.654-0.604-1.864-1.748-2.757-1.51c-2.446,0.652,2.215,6.088,2.756,7.213
		c-0.501,0.397-1.96-1.065-2.573-1.296c-0.749-0.284-2.036-0.775-2.713-0.146c0.423,0.674,0.684,1.634,1.104,2.411
		c0.373,0.688,1.608,2.247,1.12,3.008c-0.552-0.404-0.92-1.201-1.568-1.444c-0.601-0.226-1.274,0.042-1.819,0.052
		c-0.459,0.009-1.144-0.346-1.321,0.038c-0.152,0.333,0.495,1.177,0.67,1.501c0.284,0.523,2.133,3.141,1.479,3.748
		c-0.389,0.363-1.037-0.077-1.488-0.1c-0.643-0.035-1.503,0.221-2.02,0.622c0.367,0.737,0.759,1.526,1.257,2.17
		c0.461,0.596,1.792,1.555,1.759,2.214c-0.681-0.276-1.748-0.387-2.396-0.004c0.311,0.649,2.137,3.138,1.244,3.655
		c-0.264-0.318-0.618-0.411-0.921-0.125c-0.347,0.329,0.1,0.992,0.163,1.312c0.167,0.865,0.116,1.692,0.476,2.559
		c0.437,1.054,1.027,1.857,1.193,2.966c0.131,0.879,0.349,1.645,0.581,2.393c0.189,0.616,0.495,1.285,0.525,1.954
		c0.031,0.702-0.131,1.321-0.062,2.027c0.157,1.586,0.209,3.433-0.332,4.995c-0.455,1.314-1.592,2.879-0.611,4.337
		c0.331,0.492,1.427,0.69,1.063,1.454c-0.373,0.783-1.419,0.364-2,0.438c-1.545,0.193-2.994,2.388-4.094,3.298
		c-1.067,0.884-1.523,2.57-1.36,3.889c0.085,0.688,0.445,1.591,0.934,2.197c0.537,0.668,1.01,0.488,1.69,0.74
		c0.855,0.318,1.609,1.097,2.502,1.318c0.576,0.141,1.665-0.053,1.854,0.762c-1.004,1.267-3.32,1.965-4.771,2.78
		c-1.397,0.789-3.325,2.233-4.109,3.651c-0.485,0.878-1.008,2.056-1.206,3.096c-0.188,1-0.709,1.701-0.967,2.674
		c-0.322,1.21-0.683,3.906,0.592,4.861c0.688,0.515,2.202-0.186,2.916-0.471c1.05-0.418,2.025-1.041,3.049-1.538
		c0.937-0.456,1.921-1.005,2.894-1.411c1.09-0.457,2.517-0.678,3.478-1.451c0.851-0.688,0.962-1.689,1.542-2.575
		c0.375-0.574,1.131-1.012,1.708-1.364c1.115-0.684,1.775-0.836,3.021-0.883c0.808-0.031,1.72,0.119,2.538,0.005
		c2.038-0.284,4.426-1.403,6.324-2.312c2.015-0.969,4.058-1.805,6.002-2.998c1.721-1.058,2.979-2.923,4.408-4.217
		c1.349-1.223,2.2-2.801,3.375-4.072c0.787-0.853,0.864-1.75,1.474-2.539c0.696-0.898,1.555-1.51,2.206-2.467
		c1.109-1.626,2.152-3.338,3.196-5.068c0.874-1.449,1.064-3.57,1.944-5.113c0.899-1.57,1.942-2.903,3.284-4.206
		c0.582-0.565,1.289-1.088,1.734-1.689c0.47-0.632,1.161-1.244,1.596-1.862c0.44-0.628,0.709-1.272,1.236-1.808
		c0.64-0.649,1.222-1.218,1.953-1.687c1.405-0.903,3.03-1.715,4.551-2.352c1.867-0.778,3.657-1.815,5.461-2.792
		c0.484-0.262,1.294-0.561,1.579-1.014c0.26-0.414,0.103-0.93,0.372-1.327C72.794,25.674,72.861,25.606,72.935,25.548z"/>
	<g>
		<path fill="#FFFFFF" d="M61.434,58.466h-1.986v-2.702h2.331l0.371-2.86h-1.934v-2.702h2.278l0.662-5.112h2.278l-0.662,5.112h2.278
			l0.663-5.112h2.278l-0.662,5.112h1.987v2.702h-2.331l-0.371,2.86h1.934v2.702h-2.278l-0.663,5.112h-2.278l0.662-5.112h-2.278
			l-0.662,5.112h-2.278L61.434,58.466z M64.056,55.764h2.278l0.371-2.86h-2.278L64.056,55.764z"/>
		<path fill="#FFFFFF" d="M81.674,50.333c0.026-1.774-0.265-3.337-2.384-3.337c-2.49,0-2.49,3.364-2.49,7.072
			c0,5.987,0.583,7.046,2.861,7.046c0.663,0,1.377-0.158,1.987-0.371v-4.238h-2.172v-2.939h6.172v9.695
			c-1.086,0.211-3.814,0.635-5.404,0.635c-6.729,0-7.497-2.781-7.497-10.039c0-4.82,0.238-9.722,6.781-9.722
			c3.92,0,6.357,2.198,6.119,6.198H81.674z"/>
		<path fill="#FFFFFF" d="M88.618,56.718c0-3.656,0.53-6.781,5.457-6.781c4.927,0,5.457,3.125,5.457,6.781
			c0,4.186-0.636,7.125-5.457,7.125C89.253,63.843,88.618,60.903,88.618,56.718z M95.796,56.505c0-2.781-0.132-4.185-1.722-4.185
			c-1.589,0-1.722,1.403-1.722,4.185c0,4.08,0.345,4.954,1.722,4.954C95.452,61.459,95.796,60.585,95.796,56.505z"/>
		<path fill="#FFFFFF" d="M101.866,56.718c0-3.656,0.53-6.781,5.457-6.781c4.927,0,5.457,3.125,5.457,6.781
			c0,4.186-0.636,7.125-5.457,7.125C102.501,63.843,101.866,60.903,101.866,56.718z M109.044,56.505
			c0-2.781-0.132-4.185-1.722-4.185c-1.589,0-1.722,1.403-1.722,4.185c0,4.08,0.345,4.954,1.722,4.954
			C108.7,61.459,109.044,60.585,109.044,56.505z"/>
		<path fill="#FFFFFF" d="M118.372,59.287c-0.027,0.608,0,1.192,0.185,1.616c0.212,0.424,0.609,0.635,1.351,0.635
			s1.377-0.477,1.377-1.377c0-2.834-6.569-2.199-6.569-6.463c0-2.888,2.861-3.762,5.271-3.762c2.543,0,4.848,1.219,4.636,4.105
			h-3.656c0-0.928-0.106-1.483-0.371-1.722c-0.238-0.238-0.557-0.292-0.954-0.292c-0.821,0-1.271,0.53-1.271,1.431
			c0,2.119,6.569,2.014,6.569,6.305c0,2.331-1.907,4.079-5.006,4.079c-3.258,0-5.431-0.82-5.219-4.556H118.372z"/>
		<path fill="#FFFFFF" d="M130.639,57.485c0,1.59,0.053,3.974,1.695,3.974c1.324,0,1.588-1.271,1.588-2.384h3.789
			c-0.053,1.457-0.53,2.648-1.431,3.47c-0.874,0.821-2.198,1.298-3.946,1.298c-4.822,0-5.457-2.939-5.457-7.125
			c0-3.656,0.529-6.781,5.457-6.781c5.032,0,5.588,3.258,5.456,7.549H130.639z M134.055,55.394c0-1.299,0.053-3.152-1.721-3.152
			c-1.723,0-1.695,2.013-1.695,3.152H134.055z"/>
		<path fill="#FFFFFF" d="M138.933,44.453h4.106l2.489,13.43h0.054l3.02-13.43h4.715l2.861,13.43h0.053l2.383-13.43h3.922
			l-4.238,19.125h-4.424l-2.994-13.986h-0.053l-3.311,13.986h-4.345L138.933,44.453z"/>
		<path fill="#FFFFFF" d="M173.667,61.088c0,0.821,0.105,1.669,0.186,2.49h-3.471l-0.159-1.774h-0.053
			c-0.795,1.377-1.881,2.039-3.497,2.039c-2.596,0-3.549-1.934-3.549-4.265c0-4.424,3.416-4.608,6.887-4.556v-1.033
			c0-1.139-0.158-1.961-1.51-1.961c-1.298,0-1.404,0.98-1.404,2.04h-3.655c0-1.616,0.503-2.649,1.378-3.258
			c0.848-0.636,2.066-0.874,3.496-0.874c4.742,0,5.352,2.039,5.352,4.477V61.088z M166.779,59.419c0,0.954,0.159,2.119,1.378,2.119
			c2.197,0,1.854-2.967,1.854-4.424C168.157,57.194,166.779,57.035,166.779,59.419z"/>
		<path fill="#FFFFFF" d="M175.258,50.201h1.51v-2.119l3.734-1.669v3.788h1.934v2.305h-1.934v7.151c0,1.007-0.025,1.67,1.193,1.67
			c0.238,0,0.477,0,0.662-0.054v2.305c-0.504,0.053-1.033,0.132-1.934,0.132c-3.232,0-3.656-2.145-3.656-2.967v-8.237h-1.51V50.201z
			"/>
		<path fill="#FFFFFF" d="M190.942,54.97c0-1.987-0.504-2.649-1.67-2.649c-1.588,0-1.721,1.403-1.721,4.185
			c0,4.08,0.344,4.954,1.721,4.954c1.166,0,1.723-1.06,1.723-2.808h3.734c0,3.629-1.959,5.191-5.457,5.191
			c-4.82,0-5.456-2.939-5.456-7.125c0-3.656,0.53-6.781,5.456-6.781c3.444,0,5.404,1.536,5.404,5.033H190.942z"/>
		<path fill="#FFFFFF" d="M203.924,63.578V54.36c0-1.192-0.211-2.119-1.404-2.119c-1.191,0-1.403,0.927-1.403,2.119v9.218h-3.735
			V44.453h3.735v7.099h0.054c0.37-0.609,0.82-1.006,1.324-1.244c0.529-0.266,1.139-0.371,1.828-0.371
			c1.773,0,3.337,1.059,3.337,2.914v10.728H203.924z"/>
		<path fill="#FFFFFF" d="M210.762,44.453h3.549l-1.934,5.218h-2.543L210.762,44.453z"/>
		<path fill="#FFFFFF" d="M216.326,47.949c1.325-0.741,2.622-1.616,3.576-2.86h3.55v18.489h-4V49.354
			c-0.953,0.794-2.039,1.483-3.126,2.065V47.949z"/>
		<path fill="#FFFFFF" d="M227.374,55.632c4.451-10.464,4.451-10.517,4.478-10.543h4.9v11.416h1.457v2.861h-1.457v4.212h-3.655
			v-4.212h-5.723V55.632z M233.415,56.505l0.238-8.82h-0.054l-3.364,8.82H233.415z"/>
	</g>
</g>
</svg>
