<?xml version="1.0" encoding="utf-8"?>
<!-- Generator: Adobe Illustrator 16.0.0, SVG Export Plug-In . SVG Version: 6.00 Build 0)  -->
<!DOCTYPE svg PUBLIC "-//W3C//DTD SVG 1.1//EN" "http://www.w3.org/Graphics/SVG/1.1/DTD/svg11.dtd">
<svg version="1.1" id="Layer_1" xmlns="http://www.w3.org/2000/svg" xmlns:xlink="http://www.w3.org/1999/xlink" x="0px" y="0px"
	 width="524.453px" height="50px" viewBox="24.299 20.667 524.453 50" enable-background="new 24.299 20.667 524.453 50"
	 xml:space="preserve">
<g>
	<g>
		<path fill="#FFFFFF" d="M26.469,46.193v-0.125c0-12.044,8.845-22.708,22.018-22.708c7.402,0,11.981,2.133,16.373,5.834
			l-3.199,3.764c-3.387-2.948-7.151-5.019-13.361-5.019c-9.723,0-16.686,8.218-16.686,18.004v0.125
			c0,10.476,6.712,18.254,17.376,18.254c5.019,0,9.66-1.944,12.671-4.391V49.018H48.298v-4.455h18.128v17.502
			c-4.077,3.639-10.225,6.711-17.626,6.711C35,68.775,26.469,58.74,26.469,46.193z"/>
		<path fill="#FFFFFF" d="M74.771,51.965V51.84c0-9.159,7.151-16.938,16.937-16.938c9.723,0,16.874,7.653,16.874,16.812v0.126
			c0,9.158-7.214,16.938-17,16.938C81.86,68.775,74.771,61.123,74.771,51.965z M103.627,51.965V51.84
			c0-6.963-5.207-12.672-12.044-12.672c-7.026,0-11.856,5.708-11.856,12.546v0.126c0,6.963,5.144,12.607,11.981,12.607
			C98.734,64.447,103.627,58.803,103.627,51.965z"/>
		<path fill="#FFFFFF" d="M115.296,51.965V51.84c0-9.159,7.151-16.938,16.937-16.938c9.723,0,16.874,7.653,16.874,16.812v0.126
			c0,9.158-7.214,16.938-17,16.938C122.384,68.775,115.296,61.123,115.296,51.965z M144.151,51.965V51.84
			c0-6.963-5.207-12.672-12.044-12.672c-7.026,0-11.856,5.708-11.856,12.546v0.126c0,6.963,5.144,12.607,11.981,12.607
			C139.258,64.447,144.151,58.803,144.151,51.965z"/>
		<path fill="#FFFFFF" d="M155.13,63.883l2.446-3.449c3.513,2.635,7.402,4.141,11.229,4.141c3.889,0,6.712-2.008,6.712-5.145v-0.125
			c0-3.263-3.827-4.518-8.092-5.709c-5.081-1.443-10.727-3.199-10.727-9.158v-0.125c0-5.583,4.642-9.284,11.04-9.284
			c3.952,0,8.343,1.38,11.668,3.576l-2.196,3.638c-3.011-1.944-6.461-3.136-9.598-3.136c-3.826,0-6.272,2.007-6.272,4.705v0.125
			c0,3.074,4.015,4.266,8.343,5.583c5.018,1.506,10.413,3.45,10.413,9.285v0.125c0,6.146-5.081,9.723-11.542,9.723
			C163.913,68.65,158.769,66.832,155.13,63.883z"/>
		<path fill="#FFFFFF" d="M187.06,51.902v-0.125c0-9.347,6.587-16.875,15.557-16.875c9.597,0,15.118,7.653,15.118,17.125
			c0,0.627,0,1.004-0.063,1.567h-25.719c0.69,7.025,5.646,10.979,11.417,10.979c4.454,0,7.59-1.819,10.225-4.579l3.011,2.697
			c-3.262,3.639-7.214,6.084-13.361,6.084C194.336,68.775,187.06,61.939,187.06,51.902z M212.841,50.02
			c-0.502-5.896-3.889-11.04-10.35-11.04c-5.646,0-9.911,4.705-10.539,11.04H212.841z"/>
		<path fill="#FFFFFF" d="M241.51,24.113h10.35l9.096,29.733l9.849-29.859h8.28l9.848,29.859l9.096-29.733h10.1l-14.992,44.224
			h-8.406l-9.911-28.729l-9.911,28.729h-8.406L241.51,24.113z"/>
		<path fill="#FFFFFF" d="M307.88,58.363v-0.125c0-7.34,5.583-10.728,13.549-10.728c3.387,0,5.834,0.564,8.218,1.38v-0.564
			c0-3.952-2.447-6.147-7.214-6.147c-3.639,0-6.21,0.69-9.284,1.819l-2.384-7.276c3.701-1.631,7.339-2.697,13.048-2.697
			c5.207,0,8.97,1.38,11.354,3.764c2.509,2.509,3.638,6.21,3.638,10.727v19.51h-9.221v-3.64c-2.321,2.572-5.52,4.267-10.162,4.267
			C313.086,68.65,307.88,65.014,307.88,58.363z M329.772,56.168v-1.693c-1.631-0.754-3.764-1.256-6.084-1.256
			c-4.077,0-6.586,1.633-6.586,4.643v0.125c0,2.572,2.133,4.078,5.207,4.078C326.761,62.064,329.772,59.617,329.772,56.168z"/>
		<path fill="#FFFFFF" d="M348.279,58.488V42.556h-4.015v-8.155h4.015v-8.594h9.535v8.594h7.904v8.155h-7.904V56.92
			c0,2.195,0.941,3.262,3.074,3.262c1.756,0,3.325-0.438,4.705-1.19v7.653c-2.007,1.191-4.328,1.943-7.527,1.943
			C352.231,68.588,348.279,66.268,348.279,58.488z"/>
		<path fill="#FFFFFF" d="M370.172,51.4v-0.125c0-9.599,7.338-17.502,17.625-17.502c6.336,0,10.287,2.133,13.424,5.646l-5.834,6.272
			c-2.133-2.258-4.266-3.701-7.651-3.701c-4.769,0-8.153,4.203-8.153,9.158v0.127c0,5.143,3.324,9.283,8.531,9.283
			c3.198,0,5.395-1.381,7.715-3.576l5.582,5.646c-3.262,3.575-7.025,6.146-13.736,6.146C377.575,68.775,370.172,60.998,370.172,51.4
			z"/>
		<path fill="#FFFFFF" d="M407.624,22.231h9.535v16.937c2.195-2.823,5.018-5.395,9.848-5.395c7.215,0,11.416,4.768,11.416,12.482
			v21.769h-9.533V49.268c0-4.517-2.133-6.836-5.771-6.836c-3.637,0-5.959,2.321-5.959,6.836v18.756h-9.535V22.231L407.624,22.231z"
			/>
		<path fill="#FFFFFF" d="M463.202,40.36c4.328-0.439,6.461-2.634,6.146-6.21h-3.891V24.113h10.162v8.468
			c0,8.28-4.139,11.604-11.604,11.729L463.202,40.36z"/>
		<path fill="#FFFFFF" d="M490.364,33.585l-7.652,1.882l-2.008-7.904l12.607-3.764h6.588v44.225h-9.535V33.585z"/>
		<path fill="#FFFFFF" d="M530.637,58.551h-21.453l-1.568-6.837L531.704,23.8h8.154v26.911h5.895v7.84h-5.895v9.473h-9.223v-9.473
			H530.637z M530.637,50.711V37.035l-11.668,13.676H530.637z"/>
	</g>
</g>
</svg>
