<?xml version="1.0" encoding="utf-8"?>
<!-- Generator: Adobe Illustrator 16.0.4, SVG Export Plug-In . SVG Version: 6.00 Build 0)  -->
<!DOCTYPE svg PUBLIC "-//W3C//DTD SVG 1.1//EN" "http://www.w3.org/Graphics/SVG/1.1/DTD/svg11.dtd">
<svg version="1.1" id="Layer_1" xmlns="http://www.w3.org/2000/svg" xmlns:xlink="http://www.w3.org/1999/xlink" x="0px" y="0px"
	 width="45.932px" height="52.202px" viewBox="0 0 45.932 52.202" enable-background="new 0 0 45.932 52.202" xml:space="preserve">
<g>
	<path fill="#231F20" d="M35.311,9.971c0.006-0.604,0.04-1.205,0.09-1.799c0.075-0.877-0.099-1.804-0.098-2.687
		c0.002-1.208-0.227-2.708,0.314-3.835c0.488-1.017,1.734-1.479,2.789-1.575c0.396-0.037,1.209-0.128,1.562-0.036
		c0.262,0.068,0.548,0.349,0.81,0.48l0.33,0.247l0.191,0.192l0.246,0.219l0.246,0.22l0.166,0.191l0.191,0.192l0.191,0.26
		l0.206,0.151l0.206,0.192l0.205,0.165l2.824,1.577l0.15,0.164c0,0-0.027,0.124-0.068,0.124s-0.178-0.027-0.22,0
		c-0.041,0.028-4.894-0.137-4.894-0.137l-0.178,0.141L40.12,4.66l-0.232,0.233l-0.233,0.192L39.42,5.236
		c0,0-0.082,0.096-0.137,0.123S39.106,5.51,39.106,5.51s-0.15,0.137-0.207,0.192c-0.055,0.055-0.178,0.206-0.178,0.206l-0.15-0.206
		l0.124-0.11l0.178-0.096L39.01,5.4l0.15-0.109l0.109-0.165l0.123-0.096l0.109-0.068l0.11-0.137l0.15-0.11l0.11-0.123l0.096-0.137
		l0.15-0.055l0.179-0.11l0.178-0.041l0.014-0.247l-0.04-0.165l-0.098-0.124l-0.095-0.206L40.161,3.33l-0.123-0.164l-0.123-0.097
		l-0.178-0.164l-0.18-0.178l-0.164-0.096l-0.15-0.123L39.05,2.384l-0.219-0.11l-0.192-0.137L38.42,2.055l-0.232-0.165l-0.18-0.164
		l-0.191-0.138l-0.15-0.178l-0.22-0.11L37.365,1.26l-0.233-0.027h-0.137h-0.288c0,0-0.164,0.027-0.206,0.041
		c-0.041,0.014-0.246,0.124-0.246,0.124l-0.096,0.124l-0.068,0.15V1.85v0.219v0.274v0.288v0.151l0.068,0.212l0.082,0.185
		l0.068,0.274l0.096,0.165l0.123,0.137l0.096,0.124l0.151,0.178l0.068,0.096l0.11,0.11l0.137,0.109l0.205,0.178l0.124,0.151
		l0.151,0.123l0.15,0.137l0.109,0.082l0.123,0.083l0.206,0.165L38.228,5.4l0.083,0.042l0.15,0.137l0.027,0.082l0.206,0.343
		l-0.028,0.068l-0.027,0.261c0,0-0.036,0.42-0.036,0.475s-0.019,0.53-0.037,0.621c-0.018,0.092-0.036,0.329-0.036,0.329
		c0,0.739-0.139,1.563-0.012,2.305c0.105,0.61,0.174,1.225,0.271,1.836c0.159,1.012,0.396,2.051,0.774,3.005
		c0.216,0.541,0.375,0.984,0.728,1.444c2.294,2.99,4.824,6.247,4.104,10.26c-0.696,3.881-3.852,6.934-6.916,9.144
		c-1.747,1.261-3.699,2.585-5.672,3.466c-3.912,1.746-7.426,2.277-11.671,2.352c-1.194,0.021-2.367-0.121-3.523-0.433
		c-1.131-0.304-2.168-0.707-3.244-1.169c-0.603-0.26-1.225-0.452-1.831-0.701c-0.506-0.208-1.07-0.188-1.593-0.354
		c-1.102-0.354-2.25-0.562-3.359-0.904c-0.391-0.12-0.773-0.278-1.158-0.421l-0.64-0.182L4.131,37.13l-0.768-0.019l-1.572-0.018
		L0.585,37.13H0v-0.257l0.877-0.291l0.347-0.165L1.7,36.18l0.311-0.055l0.201-0.165l0.366-0.22l0.146-0.183l-0.42-0.055H1.59H1.371
		l0.731-0.512c0,0,1.142-0.579,1.152-0.585c2.668-1.355,4.844-3.234,7.267-4.979c2.158-1.555,4.338-3.188,6.61-4.566
		c1.096-0.665,2.256-1.216,3.429-1.732c0.887-0.39,1.884-0.69,2.641-1.314c0.628-0.518,1.394-0.669,2.162-0.91
		c1.644-0.515,3.069-0.5,4.798-0.483c1.522,0.014,3.078,0.209,4.598,0.332c1.17,0.094,2.136,1.22,2.459-0.479
		c0.258-1.354-0.104-2.756-0.604-4.012c-0.248-0.623-0.443-1.249-0.662-1.874C35.448,12.96,35.294,11.46,35.311,9.971z"/>
	<path fill="#231F20" d="M26.672,41.103c0.061,0.066,0.096,0.166,0.096,0.313c0.078-0.023,0.177,0.023,0.256,0
		c0.067,0.231,0.271,1.012-0.256,0.877c-0.055,0.44,0.11,0.881,0.14,1.317c0.03,0.463-0.013,0.927,0.075,1.386
		c0.098,0.512,0.345,0.865,0.603,1.297c0.255,0.426,0.343,0.852,0.892,0.907c0.581,0.06,1.156,0.192,1.74,0.233
		c0.734,0.052,1.332,0.011,2.033,0.27c0,0,0.439-0.072,0.549,0c0.109,0.074,0.549,0.257,0.549,0.257s-0.22,0.219-0.329,0.219
		c-0.11,0-0.073,0.183-0.073,0.183l0.402,0.293l0.804,0.256c0,0,0.183,0.183,0,0.183s-0.183,0-0.438,0s-0.439,0-0.549,0
		s-0.475-0.073-0.621,0s-0.365-0.11-0.512,0c-0.146,0.109-0.476,0.018-0.476,0.018l0.293,0.494c0.062,0.087,0.118,0.151,0.13,0.251
		c-0.733,0.182-1.719-0.07-2.393-0.368c-0.361-0.159-0.638-0.38-0.976-0.579c-0.382-0.225-0.81-0.262-1.198-0.487
		c-0.178-0.103-1.632-0.847-1.632-1.083v-1.023c0-0.48-0.002-0.962,0-1.443c0.001-0.537,0.183-1.211,0.003-1.725
		c-0.063-0.18-0.27-0.312-0.352-0.49c-0.272-0.59,0.074-1.072,0.23-1.633C25.93,40.993,26.458,40.868,26.672,41.103z"/>
	<path fill="#231F20" d="M20.992,41.307c0,0.516,0.18,0.598,0.439,1.014c0.185,0.296,0.203,0.549,0.186,0.924
		c0.003-0.058-0.234,0.199-0.251,0.234c-0.209,0.439-0.057,1.253,0.017,1.703c0.114,0.687,0.356,1.345,0.667,1.967
		c0.246,0.492-0.04,0.996,0.55,1.198c0.458,0.157,0.946,0.126,1.42,0.124c0.908-0.004,1.812,0.012,2.718,0.043l0.632,0.18
		c0.146,0.041-0.102,0.54-0.163,0.582c0.304,0.484,0.517,0.59,1.024,0.824c0.272,0.125,0.723,0.051,0.943,0.271
		c0.516,0.516-0.451,0.479-0.709,0.486c-0.416,0.015-0.83,0.062-1.247,0.058c-0.265-0.003-0.707,0.075-0.832,0.384
		c-0.134,0.33,0.562,0.826,0.018,0.899c-0.275,0.037-0.556-0.328-0.823-0.388c-0.438-0.096-0.883-0.108-1.317-0.237
		c-0.412-0.122-0.701-0.38-1.075-0.601c-0.359-0.211-0.754-0.385-1.079-0.65c-0.51-0.417-0.884-0.82-1.483-1.12l-0.292-1.279
		c-0.101-1.411-0.366-2.87-0.366-4.276c-1.042-0.465-0.208-1.562-0.11-2.34C19.964,41.307,20.992,41.307,20.992,41.307z"/>
</g>
</svg>
