<?xml version="1.0" encoding="utf-8"?>
<!-- Generator: Adobe Illustrator 16.0.0, SVG Export Plug-In . SVG Version: 6.00 Build 0)  -->
<!DOCTYPE svg PUBLIC "-//W3C//DTD SVG 1.1//EN" "http://www.w3.org/Graphics/SVG/1.1/DTD/svg11.dtd">
<svg version="1.1" id="Layer_1" xmlns="http://www.w3.org/2000/svg" xmlns:xlink="http://www.w3.org/1999/xlink" x="0px" y="0px"
	 width="199.621px" height="57.828px" viewBox="0 0 199.621 57.828" enable-background="new 0 0 199.621 57.828"
	 xml:space="preserve">
<g>
	<polygon points="56.506,4.535 50.22,4.535 50.22,0.345 67.345,0.345 67.345,4.535 61.062,4.535 61.062,21.006 56.506,21.006 	"/>
	<polygon points="70.803,0.345 86.389,0.345 86.389,4.382 75.318,4.382 75.318,8.576 85.062,8.576 85.062,12.626 75.318,12.626 
		75.318,16.961 86.535,16.961 86.535,21.006 70.803,21.006 	"/>
	<path d="M100.578,10.38c2.217,0,3.484-1.181,3.484-2.921V7.4c0-1.949-1.361-2.953-3.573-2.953h-4.515v5.933H100.578z M91.426,0.345
		h9.451c2.623,0,4.66,0.735,6.021,2.096c1.147,1.151,1.771,2.77,1.771,4.719v0.062c0,3.337-1.799,5.435-4.426,6.407l5.045,7.378
		h-5.314l-4.428-6.611h-3.568v6.611h-4.548V0.345H91.426z"/>
	<polygon points="113.683,0.345 118.228,0.345 118.228,16.875 127.901,16.875 127.901,21.006 113.683,21.006 	"/>
	<path d="M145.812,10.749v-0.061c0-3.54-2.596-6.494-6.254-6.494c-3.661,0-6.201,2.894-6.201,6.434v0.06
		c0,3.543,2.596,6.498,6.26,6.498C143.272,17.186,145.812,14.292,145.812,10.749 M128.601,10.749v-0.061
		C128.601,4.817,133.235,0,139.617,0c6.371,0,10.949,4.755,10.949,10.628v0.06c0,5.876-4.635,10.686-11.009,10.686
		C133.182,21.374,128.601,16.622,128.601,10.749"/>
	<path d="M169.739,10.749v-0.061c0-3.54-2.598-6.494-6.262-6.494c-3.656,0-6.199,2.894-6.199,6.434v0.06
		c0,3.543,2.601,6.498,6.257,6.498C167.194,17.186,169.739,14.292,169.739,10.749 M152.527,10.749v-0.061
		C152.527,4.817,157.162,0,163.535,0c6.381,0,10.954,4.755,10.954,10.628v0.06c0,5.876-4.633,10.686-11.012,10.686
		C157.102,21.374,152.527,16.622,152.527,10.749"/>
	<path d="M42.759,0.332h-4.311l-8.799,20.675h4.637l1.889-4.637h8.738l1.89,4.637h4.749L42.759,0.332z M37.802,12.357l2.745-6.702
		l2.742,6.702H37.802z"/>
	<polygon points="26.517,0.323 22.273,14.187 17.702,0.323 13.684,0.323 9.108,14.187 4.87,0.323 0,0.323 7.014,21.005 
		10.97,21.005 15.639,7.488 20.299,21.005 24.25,21.005 31.265,0.323 	"/>
	<g>
		<path d="M2.917,38.292l2.015-2.408c1.307,1.025,2.725,1.568,4.237,1.568c0.989,0,1.512-0.336,1.512-0.896v-0.038
			c0-0.56-0.43-0.841-2.221-1.269c-2.781-0.635-4.928-1.42-4.928-4.088v-0.037c0-2.426,1.923-4.182,5.059-4.182
			c2.222,0,3.958,0.597,5.376,1.736l-1.811,2.558c-1.195-0.858-2.501-1.288-3.659-1.288c-0.877,0-1.306,0.354-1.306,0.84v0.037
			c0,0.598,0.448,0.858,2.277,1.27c2.986,0.652,4.853,1.625,4.853,4.068v0.039c0,2.668-2.109,4.254-5.282,4.254
			C6.725,40.457,4.541,39.729,2.917,38.292z"/>
		<path d="M19.839,30.341h-3.901v-3.173H27.38v3.173h-3.92v9.893h-3.622L19.839,30.341L19.839,30.341z"/>
		<path d="M29.369,34.503v-7.335h3.659v7.259c0,1.887,0.952,2.781,2.408,2.781c1.474,0,2.426-0.857,2.426-2.688v-7.354h3.658v7.243
			c0,4.199-2.408,6.066-6.122,6.066C31.703,40.477,29.369,38.591,29.369,34.503z"/>
		<path d="M44.601,27.167h5.058c4.648,0,7.354,2.688,7.354,6.458v0.039c0,3.771-2.744,6.569-7.429,6.569h-4.983V27.167z
			 M48.222,30.359v6.663h1.475c2.184,0,3.621-1.194,3.621-3.304v-0.037c0-2.09-1.438-3.322-3.621-3.322H48.222z"/>
		<path d="M59.613,27.167h10.509v3.061h-6.925v1.997h6.272v2.856h-6.272v2.07h7.018v3.08H59.613V27.167z"/>
		<path d="M73.083,27.167h3.379l5.376,6.907v-6.907h3.583v13.066h-3.154l-5.601-7.168v7.168h-3.583V27.167z"/>
		<path d="M91.404,30.341h-3.901v-3.173h11.442v3.173h-3.92v9.893h-3.621V30.341z"/>
		<path d="M106.019,38.292l2.016-2.408c1.307,1.025,2.725,1.568,4.236,1.568c0.988,0,1.514-0.336,1.514-0.896v-0.038
			c0-0.56-0.431-0.841-2.223-1.269c-2.782-0.635-4.928-1.42-4.928-4.088v-0.037c0-2.426,1.921-4.182,5.059-4.182
			c2.221,0,3.957,0.597,5.376,1.736l-1.812,2.558c-1.193-0.858-2.5-1.288-3.658-1.288c-0.878,0-1.307,0.354-1.307,0.84v0.037
			c0,0.598,0.449,0.858,2.277,1.27c2.985,0.652,4.854,1.625,4.854,4.068v0.039c0,2.668-2.11,4.254-5.282,4.254
			C109.826,40.457,107.643,39.729,106.019,38.292z"/>
		<path d="M119.75,34.503v-7.335h3.658v7.259c0,1.887,0.952,2.781,2.409,2.781c1.474,0,2.427-0.857,2.427-2.688v-7.354h3.658v7.243
			c0,4.199-2.408,6.066-6.123,6.066C122.082,40.477,119.75,38.591,119.75,34.503z"/>
		<path d="M134.326,33.738v-0.037c0-3.808,2.91-6.794,6.867-6.794c2.67,0,4.387,1.12,5.544,2.707l-2.725,2.109
			c-0.746-0.915-1.606-1.53-2.854-1.53c-1.83,0-3.117,1.567-3.117,3.474v0.037c0,1.959,1.287,3.488,3.117,3.488
			c1.36,0,2.164-0.634,2.948-1.587l2.726,1.942c-1.231,1.697-2.894,2.947-5.77,2.947C137.33,40.494,134.326,37.639,134.326,33.738z"
			/>
		<path d="M148.248,33.738v-0.037c0-3.808,2.912-6.794,6.869-6.794c2.67,0,4.387,1.12,5.545,2.707l-2.726,2.109
			c-0.748-0.915-1.606-1.53-2.856-1.53c-1.83,0-3.117,1.567-3.117,3.474v0.037c0,1.959,1.287,3.488,3.117,3.488
			c1.362,0,2.166-0.634,2.948-1.587l2.726,1.942c-1.23,1.697-2.894,2.947-5.768,2.947C151.253,40.494,148.248,37.639,148.248,33.738
			z"/>
		<path d="M162.976,27.167h10.508v3.061h-6.924v1.997h6.271v2.856h-6.271v2.07h7.018v3.08h-10.602V27.167z"/>
		<path d="M175.348,38.292l2.019-2.408c1.305,1.025,2.725,1.568,4.235,1.568c0.989,0,1.513-0.336,1.513-0.896v-0.038
			c0-0.56-0.431-0.841-2.223-1.269c-2.781-0.635-4.928-1.42-4.928-4.088v-0.037c0-2.426,1.924-4.182,5.059-4.182
			c2.221,0,3.958,0.597,5.376,1.736l-1.81,2.558c-1.195-0.858-2.502-1.288-3.659-1.288c-0.877,0-1.308,0.354-1.308,0.84v0.037
			c0,0.598,0.448,0.858,2.276,1.27c2.988,0.652,4.854,1.625,4.854,4.068v0.039c0,2.668-2.108,4.254-5.283,4.254
			C179.158,40.457,176.973,39.729,175.348,38.292z"/>
		<path d="M188.214,38.292l2.018-2.408c1.307,1.025,2.725,1.568,4.236,1.568c0.99,0,1.512-0.336,1.512-0.896v-0.038
			c0-0.56-0.43-0.841-2.221-1.269c-2.781-0.635-4.928-1.42-4.928-4.088v-0.037c0-2.426,1.922-4.182,5.058-4.182
			c2.222,0,3.959,0.597,5.376,1.736l-1.809,2.558c-1.195-0.858-2.502-1.288-3.66-1.288c-0.877,0-1.307,0.354-1.307,0.84v0.037
			c0,0.598,0.447,0.858,2.276,1.27c2.985,0.652,4.854,1.625,4.854,4.068v0.039c0,2.668-2.109,4.254-5.283,4.254
			C192.022,40.457,189.839,39.729,188.214,38.292z"/>
		<path d="M3.477,51.07v-0.037c0-3.752,3.024-6.795,7.056-6.795c4.032,0,7.019,3.006,7.019,6.758v0.037
			c0,3.752-3.024,6.795-7.056,6.795C6.463,57.828,3.477,54.822,3.477,51.07z M13.836,51.07v-0.037c0-1.904-1.344-3.527-3.341-3.527
			c-1.998,0-3.323,1.605-3.323,3.49v0.037c0,1.885,1.363,3.527,3.36,3.527C12.511,54.561,13.836,52.955,13.836,51.07z"/>
		<path d="M20.142,44.5h10.453v3.174h-6.832v2.222h6.178V52.9h-6.178v4.667h-3.621V44.5z"/>
		<path d="M33.075,44.5h10.453v3.174h-6.832v2.222h6.179V52.9h-6.179v4.667h-3.621V44.5z"/>
		<path d="M46.085,44.5h3.621v13.066h-3.621V44.5z"/>
		<path d="M52.371,51.07v-0.037c0-3.809,2.912-6.795,6.869-6.795c2.67,0,4.387,1.121,5.544,2.707l-2.725,2.109
			c-0.747-0.915-1.605-1.531-2.856-1.531c-1.829,0-3.117,1.568-3.117,3.473v0.037c0,1.959,1.288,3.49,3.117,3.49
			c1.363,0,2.166-0.635,2.949-1.587l2.725,1.94c-1.231,1.699-2.893,2.949-5.767,2.949C55.376,57.828,52.371,54.972,52.371,51.07z"/>
		<path d="M67.098,44.5h10.509v3.062h-6.925v1.997h6.272v2.854h-6.272v2.072h7.019v3.08H67.098V44.5z"/>
	</g>
</g>
</svg>
